<mxfile host="app.diagrams.net" modified="2020-10-12T18:18:10.827Z" agent="5.0 (Windows NT 10.0; Win64; x64) AppleWebKit/537.36 (KHTML, like Gecko) Chrome/85.0.4183.121 Safari/537.36" etag="aOSzwkVQJGF8YraCDgps" version="13.7.9" type="github">
  <diagram id="C5RBs43oDa-KdzZeNtuy" name="Page-1">
    <mxGraphModel dx="1422" dy="745" grid="1" gridSize="10" guides="1" tooltips="1" connect="1" arrows="1" fold="1" page="1" pageScale="1" pageWidth="827" pageHeight="1169" math="0" shadow="0">
      <root>
        <mxCell id="WIyWlLk6GJQsqaUBKTNV-0" />
        <mxCell id="WIyWlLk6GJQsqaUBKTNV-1" parent="WIyWlLk6GJQsqaUBKTNV-0" />
        <mxCell id="vU1j4UsOGJ4VojbGJCBY-1" style="edgeStyle=orthogonalEdgeStyle;rounded=0;orthogonalLoop=1;jettySize=auto;html=1;entryX=0.5;entryY=0;entryDx=0;entryDy=0;" edge="1" parent="WIyWlLk6GJQsqaUBKTNV-1" source="WIyWlLk6GJQsqaUBKTNV-3" target="vU1j4UsOGJ4VojbGJCBY-80">
          <mxGeometry relative="1" as="geometry">
            <mxPoint x="220" y="170" as="targetPoint" />
          </mxGeometry>
        </mxCell>
        <mxCell id="WIyWlLk6GJQsqaUBKTNV-3" value="START&lt;br&gt;Starting Phase" style="rounded=1;whiteSpace=wrap;html=1;fontSize=12;glass=0;strokeWidth=1;shadow=0;fillColor=#d5e8d4;strokeColor=#82b366;" parent="WIyWlLk6GJQsqaUBKTNV-1" vertex="1">
          <mxGeometry x="119" y="90" width="120" height="40" as="geometry" />
        </mxCell>
        <mxCell id="vU1j4UsOGJ4VojbGJCBY-6" value="T_JUNCTION" style="edgeStyle=orthogonalEdgeStyle;rounded=0;orthogonalLoop=1;jettySize=auto;html=1;exitX=1;exitY=0.5;exitDx=0;exitDy=0;entryX=0;entryY=0.5;entryDx=0;entryDy=0;" edge="1" parent="WIyWlLk6GJQsqaUBKTNV-1" target="vU1j4UsOGJ4VojbGJCBY-7">
          <mxGeometry relative="1" as="geometry">
            <mxPoint x="350" y="200" as="targetPoint" />
            <mxPoint x="239" y="200" as="sourcePoint" />
          </mxGeometry>
        </mxCell>
        <mxCell id="vU1j4UsOGJ4VojbGJCBY-8" style="edgeStyle=orthogonalEdgeStyle;rounded=0;orthogonalLoop=1;jettySize=auto;html=1;" edge="1" parent="WIyWlLk6GJQsqaUBKTNV-1" source="vU1j4UsOGJ4VojbGJCBY-7">
          <mxGeometry relative="1" as="geometry">
            <mxPoint x="486.5" y="200" as="targetPoint" />
            <Array as="points">
              <mxPoint x="486.5" y="200" />
            </Array>
          </mxGeometry>
        </mxCell>
        <mxCell id="vU1j4UsOGJ4VojbGJCBY-7" value="Move forward" style="rounded=1;whiteSpace=wrap;html=1;" vertex="1" parent="WIyWlLk6GJQsqaUBKTNV-1">
          <mxGeometry x="351.5" y="185" width="90" height="30" as="geometry" />
        </mxCell>
        <mxCell id="vU1j4UsOGJ4VojbGJCBY-11" style="edgeStyle=orthogonalEdgeStyle;rounded=0;orthogonalLoop=1;jettySize=auto;html=1;entryX=0.5;entryY=0;entryDx=0;entryDy=0;" edge="1" parent="WIyWlLk6GJQsqaUBKTNV-1" source="vU1j4UsOGJ4VojbGJCBY-10" target="vU1j4UsOGJ4VojbGJCBY-12">
          <mxGeometry relative="1" as="geometry">
            <mxPoint x="556.5" y="270" as="targetPoint" />
          </mxGeometry>
        </mxCell>
        <mxCell id="vU1j4UsOGJ4VojbGJCBY-10" value="Turn right until&lt;br&gt;central sensor detecting" style="rounded=1;whiteSpace=wrap;html=1;" vertex="1" parent="WIyWlLk6GJQsqaUBKTNV-1">
          <mxGeometry x="466.5" y="177.5" width="140" height="45" as="geometry" />
        </mxCell>
        <mxCell id="vU1j4UsOGJ4VojbGJCBY-21" style="edgeStyle=orthogonalEdgeStyle;rounded=0;orthogonalLoop=1;jettySize=auto;html=1;exitX=0.5;exitY=1;exitDx=0;exitDy=0;entryX=0.5;entryY=0;entryDx=0;entryDy=0;" edge="1" parent="WIyWlLk6GJQsqaUBKTNV-1" source="vU1j4UsOGJ4VojbGJCBY-12" target="vU1j4UsOGJ4VojbGJCBY-26">
          <mxGeometry relative="1" as="geometry">
            <mxPoint x="536.5" y="360" as="targetPoint" />
          </mxGeometry>
        </mxCell>
        <mxCell id="vU1j4UsOGJ4VojbGJCBY-12" value="Loop Phase" style="rounded=1;whiteSpace=wrap;html=1;fillColor=#d5e8d4;strokeColor=#82b366;" vertex="1" parent="WIyWlLk6GJQsqaUBKTNV-1">
          <mxGeometry x="466.5" y="270" width="140" height="45" as="geometry" />
        </mxCell>
        <mxCell id="vU1j4UsOGJ4VojbGJCBY-48" value="Yes" style="edgeStyle=orthogonalEdgeStyle;rounded=0;orthogonalLoop=1;jettySize=auto;html=1;entryX=1;entryY=0.5;entryDx=0;entryDy=0;" edge="1" parent="WIyWlLk6GJQsqaUBKTNV-1" target="vU1j4UsOGJ4VojbGJCBY-47">
          <mxGeometry relative="1" as="geometry">
            <mxPoint x="1190.25" y="395" as="sourcePoint" />
            <mxPoint x="1140.5" y="375" as="targetPoint" />
          </mxGeometry>
        </mxCell>
        <mxCell id="vU1j4UsOGJ4VojbGJCBY-94" value="No" style="edgeStyle=orthogonalEdgeStyle;rounded=0;orthogonalLoop=1;jettySize=auto;html=1;" edge="1" parent="WIyWlLk6GJQsqaUBKTNV-1" source="vU1j4UsOGJ4VojbGJCBY-26" target="vU1j4UsOGJ4VojbGJCBY-81">
          <mxGeometry relative="1" as="geometry" />
        </mxCell>
        <mxCell id="vU1j4UsOGJ4VojbGJCBY-26" value="Detect &lt;br&gt;fruit ahead?" style="rhombus;whiteSpace=wrap;html=1;shadow=0;fontFamily=Helvetica;fontSize=12;align=center;strokeWidth=1;spacing=6;spacingTop=-4;" vertex="1" parent="WIyWlLk6GJQsqaUBKTNV-1">
          <mxGeometry x="480.25" y="360" width="112.5" height="70" as="geometry" />
        </mxCell>
        <mxCell id="vU1j4UsOGJ4VojbGJCBY-87" style="edgeStyle=orthogonalEdgeStyle;rounded=0;orthogonalLoop=1;jettySize=auto;html=1;exitX=0;exitY=0.5;exitDx=0;exitDy=0;entryX=1;entryY=0.5;entryDx=0;entryDy=0;" edge="1" parent="WIyWlLk6GJQsqaUBKTNV-1" source="vU1j4UsOGJ4VojbGJCBY-47" target="vU1j4UsOGJ4VojbGJCBY-86">
          <mxGeometry relative="1" as="geometry" />
        </mxCell>
        <mxCell id="vU1j4UsOGJ4VojbGJCBY-47" value="Detect fruit phase" style="rounded=1;whiteSpace=wrap;html=1;fillColor=#d5e8d4;strokeColor=#82b366;" vertex="1" parent="WIyWlLk6GJQsqaUBKTNV-1">
          <mxGeometry x="860" y="460" width="140" height="45" as="geometry" />
        </mxCell>
        <mxCell id="vU1j4UsOGJ4VojbGJCBY-49" value="&lt;font style=&quot;font-size: 20px&quot;&gt;GENERAL BEHAVIOUR&lt;br&gt;DIAGRAM&lt;br&gt;&lt;/font&gt;" style="text;html=1;strokeColor=none;fillColor=none;align=center;verticalAlign=middle;whiteSpace=wrap;rounded=0;" vertex="1" parent="WIyWlLk6GJQsqaUBKTNV-1">
          <mxGeometry x="383.75" y="90" width="80" height="20" as="geometry" />
        </mxCell>
        <mxCell id="vU1j4UsOGJ4VojbGJCBY-56" value="LINE MOVEMENT&lt;br&gt;ALGORITHM" style="rounded=1;whiteSpace=wrap;html=1;fontSize=12;glass=0;strokeWidth=1;shadow=0;fillColor=#f8cecc;strokeColor=#b85450;" vertex="1" parent="WIyWlLk6GJQsqaUBKTNV-1">
          <mxGeometry x="14" y="640" width="120" height="40" as="geometry" />
        </mxCell>
        <mxCell id="vU1j4UsOGJ4VojbGJCBY-57" style="edgeStyle=orthogonalEdgeStyle;rounded=0;orthogonalLoop=1;jettySize=auto;html=1;exitX=0.5;exitY=1;exitDx=0;exitDy=0;entryX=0.5;entryY=0;entryDx=0;entryDy=0;" edge="1" parent="WIyWlLk6GJQsqaUBKTNV-1" target="vU1j4UsOGJ4VojbGJCBY-59" source="vU1j4UsOGJ4VojbGJCBY-56">
          <mxGeometry relative="1" as="geometry">
            <mxPoint x="235.25" y="580" as="sourcePoint" />
          </mxGeometry>
        </mxCell>
        <mxCell id="vU1j4UsOGJ4VojbGJCBY-58" style="edgeStyle=orthogonalEdgeStyle;rounded=0;orthogonalLoop=1;jettySize=auto;html=1;entryX=0;entryY=0.5;entryDx=0;entryDy=0;" edge="1" parent="WIyWlLk6GJQsqaUBKTNV-1" source="vU1j4UsOGJ4VojbGJCBY-59" target="vU1j4UsOGJ4VojbGJCBY-62">
          <mxGeometry relative="1" as="geometry">
            <mxPoint x="235.25" y="665" as="targetPoint" />
          </mxGeometry>
        </mxCell>
        <mxCell id="vU1j4UsOGJ4VojbGJCBY-59" value="Move forward" style="rounded=1;whiteSpace=wrap;html=1;" vertex="1" parent="WIyWlLk6GJQsqaUBKTNV-1">
          <mxGeometry x="29" y="745" width="90" height="30" as="geometry" />
        </mxCell>
        <mxCell id="vU1j4UsOGJ4VojbGJCBY-60" value="No" style="edgeStyle=orthogonalEdgeStyle;rounded=0;orthogonalLoop=1;jettySize=auto;html=1;" edge="1" parent="WIyWlLk6GJQsqaUBKTNV-1" source="vU1j4UsOGJ4VojbGJCBY-62" target="vU1j4UsOGJ4VojbGJCBY-64">
          <mxGeometry relative="1" as="geometry" />
        </mxCell>
        <mxCell id="vU1j4UsOGJ4VojbGJCBY-61" value="Yes" style="edgeStyle=orthogonalEdgeStyle;rounded=0;orthogonalLoop=1;jettySize=auto;html=1;entryX=0.5;entryY=0;entryDx=0;entryDy=0;" edge="1" parent="WIyWlLk6GJQsqaUBKTNV-1" source="vU1j4UsOGJ4VojbGJCBY-62" target="vU1j4UsOGJ4VojbGJCBY-75">
          <mxGeometry relative="1" as="geometry">
            <mxPoint x="225" y="835" as="targetPoint" />
          </mxGeometry>
        </mxCell>
        <mxCell id="vU1j4UsOGJ4VojbGJCBY-62" value="&lt;br&gt;Left and right sensors detect line?" style="rhombus;whiteSpace=wrap;html=1;shadow=0;fontFamily=Helvetica;fontSize=12;align=center;strokeWidth=1;spacing=6;spacingTop=-4;" vertex="1" parent="WIyWlLk6GJQsqaUBKTNV-1">
          <mxGeometry x="159" y="715" width="132.5" height="90" as="geometry" />
        </mxCell>
        <mxCell id="vU1j4UsOGJ4VojbGJCBY-63" value="No" style="edgeStyle=orthogonalEdgeStyle;rounded=0;orthogonalLoop=1;jettySize=auto;html=1;exitX=1;exitY=0.5;exitDx=0;exitDy=0;entryX=0;entryY=0.5;entryDx=0;entryDy=0;" edge="1" parent="WIyWlLk6GJQsqaUBKTNV-1" source="vU1j4UsOGJ4VojbGJCBY-64" target="vU1j4UsOGJ4VojbGJCBY-67">
          <mxGeometry relative="1" as="geometry">
            <mxPoint x="397.75" y="845" as="targetPoint" />
          </mxGeometry>
        </mxCell>
        <mxCell id="vU1j4UsOGJ4VojbGJCBY-78" value="Yes" style="edgeStyle=orthogonalEdgeStyle;rounded=0;orthogonalLoop=1;jettySize=auto;html=1;" edge="1" parent="WIyWlLk6GJQsqaUBKTNV-1" source="vU1j4UsOGJ4VojbGJCBY-64" target="vU1j4UsOGJ4VojbGJCBY-77">
          <mxGeometry relative="1" as="geometry" />
        </mxCell>
        <mxCell id="vU1j4UsOGJ4VojbGJCBY-64" value="&lt;br&gt;Front &amp;amp; right sensors&lt;br&gt;detect line?" style="rhombus;whiteSpace=wrap;html=1;shadow=0;fontFamily=Helvetica;fontSize=12;align=center;strokeWidth=1;spacing=6;spacingTop=-4;" vertex="1" parent="WIyWlLk6GJQsqaUBKTNV-1">
          <mxGeometry x="337.75" y="720" width="145" height="80" as="geometry" />
        </mxCell>
        <mxCell id="vU1j4UsOGJ4VojbGJCBY-65" style="edgeStyle=orthogonalEdgeStyle;rounded=0;orthogonalLoop=1;jettySize=auto;html=1;entryX=0;entryY=0.5;entryDx=0;entryDy=0;" edge="1" parent="WIyWlLk6GJQsqaUBKTNV-1" source="vU1j4UsOGJ4VojbGJCBY-66" target="vU1j4UsOGJ4VojbGJCBY-71">
          <mxGeometry relative="1" as="geometry">
            <Array as="points">
              <mxPoint x="670.25" y="840" />
              <mxPoint x="670.25" y="760" />
            </Array>
          </mxGeometry>
        </mxCell>
        <mxCell id="vU1j4UsOGJ4VojbGJCBY-66" value="Turn right" style="rounded=1;whiteSpace=wrap;html=1;" vertex="1" parent="WIyWlLk6GJQsqaUBKTNV-1">
          <mxGeometry x="706.5" y="825" width="90" height="30" as="geometry" />
        </mxCell>
        <mxCell id="vU1j4UsOGJ4VojbGJCBY-67" value="&lt;br&gt;Left sensor detect&lt;br&gt;line?" style="rhombus;whiteSpace=wrap;html=1;shadow=0;fontFamily=Helvetica;fontSize=12;align=center;strokeWidth=1;spacing=6;spacingTop=-4;" vertex="1" parent="WIyWlLk6GJQsqaUBKTNV-1">
          <mxGeometry x="525.25" y="720" width="122.5" height="80" as="geometry" />
        </mxCell>
        <mxCell id="vU1j4UsOGJ4VojbGJCBY-68" value="No" style="edgeStyle=orthogonalEdgeStyle;rounded=0;orthogonalLoop=1;jettySize=auto;html=1;exitX=1;exitY=0.5;exitDx=0;exitDy=0;entryX=0;entryY=0.5;entryDx=0;entryDy=0;" edge="1" parent="WIyWlLk6GJQsqaUBKTNV-1" target="vU1j4UsOGJ4VojbGJCBY-71">
          <mxGeometry relative="1" as="geometry">
            <mxPoint x="562.75" y="845" as="targetPoint" />
            <mxPoint x="647.75" y="760" as="sourcePoint" />
          </mxGeometry>
        </mxCell>
        <mxCell id="vU1j4UsOGJ4VojbGJCBY-70" value="Yes" style="edgeStyle=orthogonalEdgeStyle;rounded=0;orthogonalLoop=1;jettySize=auto;html=1;" edge="1" parent="WIyWlLk6GJQsqaUBKTNV-1" source="vU1j4UsOGJ4VojbGJCBY-71" target="vU1j4UsOGJ4VojbGJCBY-66">
          <mxGeometry relative="1" as="geometry" />
        </mxCell>
        <mxCell id="vU1j4UsOGJ4VojbGJCBY-79" value="No" style="edgeStyle=orthogonalEdgeStyle;rounded=0;orthogonalLoop=1;jettySize=auto;html=1;" edge="1" parent="WIyWlLk6GJQsqaUBKTNV-1" source="vU1j4UsOGJ4VojbGJCBY-71" target="vU1j4UsOGJ4VojbGJCBY-76">
          <mxGeometry relative="1" as="geometry" />
        </mxCell>
        <mxCell id="vU1j4UsOGJ4VojbGJCBY-71" value="&lt;br&gt;Right sensor detects line?" style="rhombus;whiteSpace=wrap;html=1;shadow=0;fontFamily=Helvetica;fontSize=12;align=center;strokeWidth=1;spacing=6;spacingTop=-4;" vertex="1" parent="WIyWlLk6GJQsqaUBKTNV-1">
          <mxGeometry x="690.25" y="720" width="122.5" height="80" as="geometry" />
        </mxCell>
        <mxCell id="vU1j4UsOGJ4VojbGJCBY-72" style="edgeStyle=orthogonalEdgeStyle;rounded=0;orthogonalLoop=1;jettySize=auto;html=1;entryX=0;entryY=0.5;entryDx=0;entryDy=0;" edge="1" parent="WIyWlLk6GJQsqaUBKTNV-1" source="vU1j4UsOGJ4VojbGJCBY-73" target="vU1j4UsOGJ4VojbGJCBY-67">
          <mxGeometry relative="1" as="geometry">
            <mxPoint x="525" y="805" as="targetPoint" />
            <Array as="points">
              <mxPoint x="505" y="840" />
              <mxPoint x="505" y="760" />
            </Array>
          </mxGeometry>
        </mxCell>
        <mxCell id="vU1j4UsOGJ4VojbGJCBY-73" value="Turn left" style="rounded=1;whiteSpace=wrap;html=1;" vertex="1" parent="WIyWlLk6GJQsqaUBKTNV-1">
          <mxGeometry x="541.5" y="825" width="90" height="30" as="geometry" />
        </mxCell>
        <mxCell id="vU1j4UsOGJ4VojbGJCBY-74" value="Yes" style="edgeStyle=orthogonalEdgeStyle;rounded=0;orthogonalLoop=1;jettySize=auto;html=1;" edge="1" parent="WIyWlLk6GJQsqaUBKTNV-1" target="vU1j4UsOGJ4VojbGJCBY-73">
          <mxGeometry relative="1" as="geometry">
            <mxPoint x="586.5500000000002" y="799.9673469387753" as="sourcePoint" />
          </mxGeometry>
        </mxCell>
        <mxCell id="vU1j4UsOGJ4VojbGJCBY-75" value="Return&lt;br&gt;T_JUNCTION" style="rounded=1;whiteSpace=wrap;html=1;fillColor=#fff2cc;strokeColor=#d6b656;" vertex="1" parent="WIyWlLk6GJQsqaUBKTNV-1">
          <mxGeometry x="180.25" y="835" width="90" height="30" as="geometry" />
        </mxCell>
        <mxCell id="vU1j4UsOGJ4VojbGJCBY-76" value="Return&lt;br&gt;DEFAULT" style="rounded=1;whiteSpace=wrap;html=1;fillColor=#fff2cc;strokeColor=#d6b656;" vertex="1" parent="WIyWlLk6GJQsqaUBKTNV-1">
          <mxGeometry x="706.5" y="640" width="90" height="30" as="geometry" />
        </mxCell>
        <mxCell id="vU1j4UsOGJ4VojbGJCBY-77" value="Return&lt;br&gt;T_JUNCTION_RIGHT" style="rounded=1;whiteSpace=wrap;html=1;fillColor=#fff2cc;strokeColor=#d6b656;" vertex="1" parent="WIyWlLk6GJQsqaUBKTNV-1">
          <mxGeometry x="348.3800000000001" y="835" width="123.75" height="30" as="geometry" />
        </mxCell>
        <mxCell id="vU1j4UsOGJ4VojbGJCBY-84" value="DEFAULT" style="edgeStyle=orthogonalEdgeStyle;rounded=0;orthogonalLoop=1;jettySize=auto;html=1;exitX=0.5;exitY=1;exitDx=0;exitDy=0;entryX=0;entryY=0.5;entryDx=0;entryDy=0;" edge="1" parent="WIyWlLk6GJQsqaUBKTNV-1" source="vU1j4UsOGJ4VojbGJCBY-80" target="vU1j4UsOGJ4VojbGJCBY-80">
          <mxGeometry relative="1" as="geometry">
            <mxPoint x="100" y="200" as="targetPoint" />
            <Array as="points">
              <mxPoint x="179" y="240" />
              <mxPoint x="99" y="240" />
              <mxPoint x="99" y="200" />
            </Array>
          </mxGeometry>
        </mxCell>
        <mxCell id="vU1j4UsOGJ4VojbGJCBY-80" value="LINE MOVEMENT&lt;br&gt;ALGORITHM" style="rounded=1;whiteSpace=wrap;html=1;fontSize=12;glass=0;strokeWidth=1;shadow=0;fillColor=#ffe6cc;strokeColor=#d79b00;" vertex="1" parent="WIyWlLk6GJQsqaUBKTNV-1">
          <mxGeometry x="119" y="180" width="120" height="40" as="geometry" />
        </mxCell>
        <mxCell id="vU1j4UsOGJ4VojbGJCBY-82" value="DEFAULT" style="edgeStyle=orthogonalEdgeStyle;rounded=0;orthogonalLoop=1;jettySize=auto;html=1;" edge="1" parent="WIyWlLk6GJQsqaUBKTNV-1" source="vU1j4UsOGJ4VojbGJCBY-81">
          <mxGeometry relative="1" as="geometry">
            <mxPoint x="536.5" y="330" as="targetPoint" />
            <Array as="points">
              <mxPoint x="360" y="330" />
            </Array>
          </mxGeometry>
        </mxCell>
        <mxCell id="vU1j4UsOGJ4VojbGJCBY-93" value="T_JUNCTION_RIGHT" style="edgeStyle=orthogonalEdgeStyle;rounded=0;orthogonalLoop=1;jettySize=auto;html=1;exitX=0.5;exitY=1;exitDx=0;exitDy=0;" edge="1" parent="WIyWlLk6GJQsqaUBKTNV-1" source="vU1j4UsOGJ4VojbGJCBY-81">
          <mxGeometry relative="1" as="geometry">
            <mxPoint x="360" y="490" as="targetPoint" />
          </mxGeometry>
        </mxCell>
        <mxCell id="vU1j4UsOGJ4VojbGJCBY-81" value="LINE MOVEMENT&lt;br&gt;ALGORITHM" style="rounded=1;whiteSpace=wrap;html=1;fontSize=12;glass=0;strokeWidth=1;shadow=0;fillColor=#ffe6cc;strokeColor=#d79b00;" vertex="1" parent="WIyWlLk6GJQsqaUBKTNV-1">
          <mxGeometry x="300" y="375" width="120" height="40" as="geometry" />
        </mxCell>
        <mxCell id="vU1j4UsOGJ4VojbGJCBY-88" value="Yes" style="edgeStyle=orthogonalEdgeStyle;rounded=0;orthogonalLoop=1;jettySize=auto;html=1;entryX=0.5;entryY=1;entryDx=0;entryDy=0;" edge="1" parent="WIyWlLk6GJQsqaUBKTNV-1" source="vU1j4UsOGJ4VojbGJCBY-86" target="vU1j4UsOGJ4VojbGJCBY-89">
          <mxGeometry relative="1" as="geometry">
            <mxPoint x="760" y="320" as="targetPoint" />
          </mxGeometry>
        </mxCell>
        <mxCell id="vU1j4UsOGJ4VojbGJCBY-86" value="Is fruit ripe?" style="rhombus;whiteSpace=wrap;html=1;shadow=0;fontFamily=Helvetica;fontSize=12;align=center;strokeWidth=1;spacing=6;spacingTop=-4;fillColor=#f8cecc;strokeColor=#b85450;" vertex="1" parent="WIyWlLk6GJQsqaUBKTNV-1">
          <mxGeometry x="960" y="360" width="112.5" height="70" as="geometry" />
        </mxCell>
        <mxCell id="vU1j4UsOGJ4VojbGJCBY-90" style="edgeStyle=orthogonalEdgeStyle;rounded=0;orthogonalLoop=1;jettySize=auto;html=1;entryX=1;entryY=0.5;entryDx=0;entryDy=0;" edge="1" parent="WIyWlLk6GJQsqaUBKTNV-1" source="vU1j4UsOGJ4VojbGJCBY-89" target="vU1j4UsOGJ4VojbGJCBY-91">
          <mxGeometry relative="1" as="geometry">
            <mxPoint x="860" y="293" as="targetPoint" />
          </mxGeometry>
        </mxCell>
        <mxCell id="vU1j4UsOGJ4VojbGJCBY-89" value="Pick up fruit" style="rounded=1;whiteSpace=wrap;html=1;fillColor=#f8cecc;strokeColor=#b85450;" vertex="1" parent="WIyWlLk6GJQsqaUBKTNV-1">
          <mxGeometry x="831.25" y="277.5" width="90" height="30" as="geometry" />
        </mxCell>
        <mxCell id="vU1j4UsOGJ4VojbGJCBY-92" style="edgeStyle=orthogonalEdgeStyle;rounded=0;orthogonalLoop=1;jettySize=auto;html=1;entryX=1;entryY=0.5;entryDx=0;entryDy=0;" edge="1" parent="WIyWlLk6GJQsqaUBKTNV-1" source="vU1j4UsOGJ4VojbGJCBY-91" target="vU1j4UsOGJ4VojbGJCBY-12">
          <mxGeometry relative="1" as="geometry">
            <mxPoint x="1176.5" y="292.5" as="targetPoint" />
          </mxGeometry>
        </mxCell>
        <mxCell id="vU1j4UsOGJ4VojbGJCBY-91" value="Return to line" style="rounded=1;whiteSpace=wrap;html=1;fillColor=#f8cecc;strokeColor=#b85450;" vertex="1" parent="WIyWlLk6GJQsqaUBKTNV-1">
          <mxGeometry x="700" y="277.5" width="90" height="30" as="geometry" />
        </mxCell>
      </root>
    </mxGraphModel>
  </diagram>
</mxfile>
